<?xml version="1.0" encoding="UTF-8" standalone="no"?>
<!DOCTYPE svg PUBLIC "-//W3C//DTD SVG 1.1//EN" "http://www.w3.org/Graphics/SVG/1.1/DTD/svg11.dtd">
<svg width="100%" height="100%" viewBox="0 0 241 219" version="1.1" xmlns="http://www.w3.org/2000/svg" xmlns:xlink="http://www.w3.org/1999/xlink" xml:space="preserve" xmlns:serif="http://www.serif.com/" style="fill-rule:evenodd;clip-rule:evenodd;stroke-linejoin:round;stroke-miterlimit:2;">
    <g transform="matrix(1,0,0,1,-459,-766)">
        <g transform="matrix(0.684503,0,0,0.684503,-246.722083,151.31675)">
            <path d="M1031,1210.821L1031,903.846C1031,902.296 1031.616,900.809 1032.712,899.712C1033.809,898.616 1035.296,898 1036.846,898C1036.846,898 1095.014,898 1119.827,898C1126.873,898 1133.629,900.799 1138.611,905.781C1178.272,945.441 1356.98,1124.15 1380.453,1147.623C1382.084,1149.253 1383,1151.465 1383,1153.771L1383,1211.319C1383,1212.826 1382.401,1214.271 1381.336,1215.336C1380.271,1216.401 1378.826,1217 1377.319,1217C1377.319,1217 1326.334,1217 1312.344,1217C1310.094,1217 1307.937,1216.106 1306.346,1214.516C1288.133,1196.303 1175.147,1083.316 1146.689,1054.859C1145.6,1053.77 1143.962,1053.444 1142.539,1054.033C1141.116,1054.623 1140.189,1056.011 1140.189,1057.552C1140.189,1079.589 1140.189,1135.328 1140.189,1158.72C1140.189,1165.502 1137.495,1172.006 1132.699,1176.801C1122.894,1186.607 1105.967,1203.534 1097.552,1211.948C1094.318,1215.183 1089.931,1217 1085.356,1217C1070.403,1217 1037.179,1217 1037.179,1217C1033.766,1217 1031,1214.234 1031,1210.821Z"/>
            <path d="M1383,1068.201C1383,1069.536 1382.196,1070.739 1380.962,1071.25C1379.729,1071.761 1378.309,1071.479 1377.365,1070.535C1356.908,1050.077 1287.047,980.216 1273.481,966.651C1272.013,965.183 1271.189,963.192 1271.189,961.116C1271.189,951.264 1271.189,921.447 1271.189,906.596C1271.189,901.849 1275.037,898 1279.785,898C1300.875,898 1353.472,898 1353.472,898C1369.442,898 1382.451,910.678 1382.983,926.518C1382.994,926.853 1383,927.19 1383,927.528L1383,1068.201Z"/>
        </g>
    </g>
</svg>
