<?xml version="1.0" encoding="UTF-8" standalone="no"?>
<!DOCTYPE svg PUBLIC "-//W3C//DTD SVG 1.1//EN" "http://www.w3.org/Graphics/SVG/1.1/DTD/svg11.dtd">
<svg width="100%" height="100%" viewBox="0 0 242 219" version="1.1" xmlns="http://www.w3.org/2000/svg" xmlns:xlink="http://www.w3.org/1999/xlink" xml:space="preserve" xmlns:serif="http://www.serif.com/" style="fill-rule:evenodd;clip-rule:evenodd;stroke-linejoin:round;stroke-miterlimit:2;">
    <g transform="matrix(1,0,0,1,-1115,-963)">
        <g transform="matrix(0.685363,-0,0,0.685363,408.390463,347.543779)">
            <path d="M1031,1210.821L1031,903.846C1031,902.296 1031.616,900.809 1032.712,899.712C1033.809,898.616 1035.296,898 1036.846,898C1036.846,898 1095.035,898 1119.841,898C1126.878,898 1133.626,900.795 1138.601,905.771C1178.244,945.414 1356.995,1124.164 1380.456,1147.626C1382.085,1149.254 1383,1151.463 1383,1153.767C1383,1166.875 1383,1211.319 1383,1211.319C1383,1212.826 1382.401,1214.271 1381.336,1215.336C1380.271,1216.401 1378.826,1217 1377.319,1217C1377.319,1217 1326.323,1217 1312.34,1217C1310.093,1217 1307.938,1216.107 1306.349,1214.519C1288.144,1196.314 1175.127,1083.296 1146.681,1054.851C1145.594,1053.763 1143.958,1053.438 1142.536,1054.026C1141.115,1054.615 1140.189,1056.002 1140.189,1057.54C1140.189,1079.574 1140.189,1135.345 1140.189,1158.734C1140.189,1165.507 1137.498,1172.003 1132.709,1176.792C1122.902,1186.599 1105.961,1203.54 1097.546,1211.955C1094.315,1215.185 1089.934,1217 1085.365,1217C1070.416,1217 1037.179,1217 1037.179,1217C1033.766,1217 1031,1214.234 1031,1210.821Z" style="fill:rgb(253,199,0);"/>
            <path d="M1383,1068.21C1383,1069.544 1382.197,1070.746 1380.965,1071.256C1379.733,1071.767 1378.315,1071.484 1377.372,1070.542C1356.922,1050.092 1287.038,980.208 1273.478,966.648C1272.012,965.182 1271.189,963.193 1271.189,961.12C1271.189,951.27 1271.189,921.435 1271.189,906.586C1271.189,904.309 1272.093,902.125 1273.703,900.515C1275.313,898.905 1277.497,898 1279.774,898C1300.858,898 1353.472,898 1353.472,898C1369.442,898 1382.451,910.678 1382.983,926.518C1382.994,926.853 1383,927.19 1383,927.528L1383,1068.21Z" style="fill:rgb(253,199,0);"/>
        </g>
    </g>
</svg>
